<?xml version="1.0" encoding="UTF-8"?>
<!DOCTYPE svg PUBLIC "-//W3C//DTD SVG 1.1//EN" "http://www.w3.org/Graphics/SVG/1.1/DTD/svg11.dtd">
<svg xmlns="http://www.w3.org/2000/svg" version="1.1" width="763px" height="158px" style="shape-rendering:geometricPrecision; text-rendering:geometricPrecision; image-rendering:optimizeQuality; fill-rule:evenodd; clip-rule:evenodd" xmlns:xlink="http://www.w3.org/1999/xlink">
<g><path style="opacity:0.005" fill="#fefffe" d="M 434.5,45.5 C 433.833,45.1667 433.167,44.8333 432.5,44.5C 435.057,43.3604 438.39,43.1938 442.5,44C 439.635,44.1829 436.969,44.6829 434.5,45.5 Z"/></g>
<g><path style="opacity:0.989" fill="#121212" d="M 68.5,30.5 C 88.5569,36.5701 106.224,47.4034 121.5,63C 124.432,64.1449 127.432,64.9782 130.5,65.5C 130.25,66.9221 129.417,67.9221 128,68.5C 126.333,68.1667 124.667,67.8333 123,67.5C 121.237,69.7193 119.237,71.7193 117,73.5C 115.242,72.5305 114.742,71.3639 115.5,70C 114.451,69.5078 113.451,69.6744 112.5,70.5C 112.151,72.9523 111.484,75.619 110.5,78.5C 105.169,75.3342 99.5027,73.0008 93.5,71.5C 87.4446,68.7494 87.1112,69.4161 92.5,73.5C 93.8333,75.1667 95.1667,76.8333 96.5,78.5C 96.5654,78.9382 96.3988,79.2716 96,79.5C 93.834,77.8787 91.334,77.0454 88.5,77C 87.1824,76.3058 86.3491,75.4725 86,74.5C 84.9231,75.4295 83.7564,76.0962 82.5,76.5C 82.5,75.8333 82.1667,75.5 81.5,75.5C 81.6716,74.5084 81.3382,73.8417 80.5,73.5C 80.5,72.8333 80.1667,72.5 79.5,72.5C 79.6716,71.5084 79.3382,70.8417 78.5,70.5C 78.5,70.1667 78.5,69.8333 78.5,69.5C 78.5,69.1667 78.5,68.8333 78.5,68.5C 78.38,67.4138 77.7133,66.7472 76.5,66.5C 74.5269,65.6689 72.5269,65.5022 70.5,66C 73.3949,72.135 74.8949,78.635 75,85.5C 75.3826,86.056 75.8826,86.3893 76.5,86.5C 78.3474,86.2342 79.014,86.5675 78.5,87.5C 76.4121,88.179 74.4121,88.5123 72.5,88.5C 73.7366,89.2807 74.7366,90.2807 75.5,91.5C 74.3595,92.4255 74.3595,93.2588 75.5,94C 74.5842,94.2784 73.9175,94.7784 73.5,95.5C 70.318,94.4055 67.318,93.0722 64.5,91.5C 65.6063,90.8506 66.6063,90.5173 67.5,90.5C 66.9747,89.8076 66.3081,89.3076 65.5,89C 66.1928,86.2989 65.1928,84.1322 62.5,82.5C 62.6236,81.8933 62.9569,81.56 63.5,81.5C 63.8333,81.5 64.1667,81.5 64.5,81.5C 64.8417,82.3382 65.5084,82.6716 66.5,82.5C 67.1667,82.5 67.5,82.1667 67.5,81.5C 67.1667,80.8333 66.8333,80.1667 66.5,79.5C 66.5,78.8333 66.5,78.1667 66.5,77.5C 65.8698,75.2504 64.8698,73.2504 63.5,71.5C 62.1897,68.5268 60.1897,66.1935 57.5,64.5C 58.2389,64.631 58.9056,64.4643 59.5,64C 59.1119,62.1918 59.1119,60.5252 59.5,59C 58.2068,58.51 56.8734,58.3433 55.5,58.5C 55.6126,55.9512 54.9459,53.6179 53.5,51.5C 54.7135,49.1493 54.0468,47.316 51.5,46C 52.5634,44.8118 53.8967,44.3118 55.5,44.5C 63.4993,46.8331 71.4993,49.1664 79.5,51.5C 79.5,52.1667 79.8333,52.5 80.5,52.5C 82.8056,52.9926 85.139,53.3259 87.5,53.5C 88.209,54.404 89.209,54.7373 90.5,54.5C 90.5,55.1667 90.8333,55.5 91.5,55.5C 92.1667,55.5 92.8333,55.5 93.5,55.5C 94.391,56.1098 95.391,56.4431 96.5,56.5C 99.6558,57.7719 99.9891,57.4386 97.5,55.5C 96.7095,54.5987 95.7095,53.9321 94.5,53.5C 93.4863,52.3263 92.153,51.6596 90.5,51.5C 82.4855,45.3275 73.4855,40.9942 63.5,38.5C 63.4226,37.2502 62.756,36.4169 61.5,36C 64.1667,35.3333 64.1667,34.6667 61.5,34C 62.8333,33.3333 62.8333,32.6667 61.5,32C 62.0253,31.3076 62.6919,30.8076 63.5,30.5C 65.1284,31.5353 66.795,31.5353 68.5,30.5 Z M 90.5,51.5 C 92.153,51.6596 93.4863,52.3263 94.5,53.5C 94.5,54.1667 94.1667,54.5 93.5,54.5C 92.3065,53.7281 91.3065,52.7281 90.5,51.5 Z M 96.5,56.5 C 96.5,55.8333 96.8333,55.5 97.5,55.5C 99.9891,57.4386 99.6558,57.7719 96.5,56.5 Z M 93.5,71.5 C 92.6618,71.8417 92.3284,72.5084 92.5,73.5C 87.1112,69.4161 87.4446,68.7494 93.5,71.5 Z"/></g>
<g><path style="opacity:0.938" fill="#151515" d="M 302.5,69.5 C 303.833,69.5 305.167,69.5 306.5,69.5C 304.058,71.2258 301.391,72.7258 298.5,74C 299.253,75.487 300.086,75.6537 301,74.5C 301.456,75.7441 300.956,76.5774 299.5,77C 301.891,77.6914 301.891,78.6914 299.5,80C 300.737,80.2321 301.737,80.7321 302.5,81.5C 300.771,82.1175 299.271,83.1175 298,84.5C 296.848,88.0909 296.015,91.7576 295.5,95.5C 296.151,103.061 296.484,110.561 296.5,118C 296.043,118.414 295.709,118.914 295.5,119.5C 293,119.833 290.5,120.167 288,120.5C 284.973,120.618 282.139,120.118 279.5,119C 280.167,94.3333 280.833,69.6667 281.5,45C 281.167,44.6667 280.833,44.3333 280.5,44C 285.429,45.4893 290.429,45.9893 295.5,45.5C 295.891,54.7654 295.891,63.9321 295.5,73C 298.027,72.4035 300.36,71.2369 302.5,69.5 Z"/></g>
<g><path style="opacity:0.989" fill="#121212" d="M 432.5,44.5 C 433.167,44.8333 433.833,45.1667 434.5,45.5C 438.545,45.3575 442.379,45.3575 446,45.5C 447.12,56.4748 447.953,67.4748 448.5,78.5C 447.691,80.0709 447.357,81.7376 447.5,83.5C 446.167,85.1667 446.167,86.8333 447.5,88.5C 448.167,88.5 448.5,88.1667 448.5,87.5C 449.167,87.5 449.5,87.1667 449.5,86.5C 454.267,81.1641 458.934,75.6641 463.5,70C 469.196,69.1701 474.863,69.3368 480.5,70.5C 475.065,78.1054 469.065,85.2721 462.5,92C 463.833,93 463.833,94 462.5,95C 469.547,103.045 476.213,111.378 482.5,120C 476.5,120.667 470.5,120.667 464.5,120C 460.029,114.855 455.696,109.688 451.5,104.5C 451.5,103.833 451.167,103.5 450.5,103.5C 450.5,103.167 450.5,102.833 450.5,102.5C 450.5,101.833 450.167,101.5 449.5,101.5C 449.5,100.833 449.167,100.5 448.5,100.5C 448.5,99.8333 448.167,99.5 447.5,99.5C 446.539,101.265 446.205,103.265 446.5,105.5C 446.5,110.5 446.5,115.5 446.5,120.5C 441.5,120.5 436.5,120.5 431.5,120.5C 431.732,95.4341 431.399,70.6008 430.5,46C 431.416,45.7216 432.082,45.2216 432.5,44.5 Z"/></g>
<g><path style="opacity:0.999" fill="#181818" d="M 649.5,120.5 C 648.761,120.631 648.094,120.464 647.5,120C 651.714,119.226 655.381,117.393 658.5,114.5C 659.248,111.249 659.248,107.916 658.5,104.5C 662.428,97.4463 661.762,90.7796 656.5,84.5C 657.072,82.053 658.072,79.3863 659.5,76.5C 659.023,75.5224 658.357,74.6891 657.5,74C 657.728,73.6012 658.062,73.4346 658.5,73.5C 659.33,64.3423 659.83,55.009 660,45.5C 664.682,45.3359 669.515,45.3359 674.5,45.5C 675.324,70.5188 675.324,95.5188 674.5,120.5C 669.833,120.5 665.167,120.5 660.5,120.5C 660.66,118.801 660.494,117.134 660,115.5C 657.195,118.653 653.695,120.319 649.5,120.5 Z"/></g>
<g><path style="opacity:0.982" fill="#191919" d="M 344.5,46.5 C 351.79,43.6839 356.456,46.3506 358.5,54.5C 357.833,59.8333 354.833,62.8333 349.5,63.5C 341.648,61.2972 339.315,56.4638 342.5,49C 342.167,48.6667 341.833,48.3333 341.5,48C 343.506,47.9174 344.506,47.4174 344.5,46.5 Z"/></g>
<g><path style="opacity:0.004" fill="#fefffe" d="M 224.5,49.5 C 224.5,50.1667 224.5,50.8333 224.5,51.5C 223.732,52.2625 223.232,53.2625 223,54.5C 222.333,52.5 222.333,50.5 223,48.5C 224.049,47.4829 225.216,47.3162 226.5,48C 225.584,48.2784 224.918,48.7784 224.5,49.5 Z"/></g>
<g><path style="opacity:0.004" fill="#fefffe" d="M 528.5,48.5 C 528.897,47.475 529.563,47.3083 530.5,48C 529.906,48.4643 529.239,48.631 528.5,48.5 Z"/></g>
<g><path style="opacity:0.991" fill="#101010" d="M 224.5,49.5 C 240.5,49.5 256.5,49.5 272.5,49.5C 272.5,54.1667 272.5,58.8333 272.5,63.5C 267.352,62.9264 262.518,63.593 258,65.5C 257.667,64.8333 257.333,64.1667 257,63.5C 256.5,82.4971 256.333,101.497 256.5,120.5C 252.233,120.203 248.066,120.536 244,121.5C 242.391,120.853 240.891,120.02 239.5,119C 240.492,101.243 240.826,83.4101 240.5,65.5C 240.5,65.1667 240.5,64.8333 240.5,64.5C 240.5,63.8333 240.167,63.5 239.5,63.5C 239.167,63.5 238.833,63.5 238.5,63.5C 233.833,63.5 229.167,63.5 224.5,63.5C 224.5,62.5 224.5,61.5 224.5,60.5C 224.5,57.5 224.5,54.5 224.5,51.5C 224.5,50.8333 224.5,50.1667 224.5,49.5 Z"/></g>
<g><path style="opacity:0.992" fill="#121212" d="M 528.5,48.5 C 541.666,50.8063 550.5,58.1396 555,70.5C 550.84,72.5543 546.507,74.221 542,75.5C 534.983,64.6069 525.15,61.1069 512.5,65C 503.158,71.0113 499.658,79.5113 502,90.5C 506.71,104.439 516.21,109.273 530.5,105C 533.331,103.334 535.664,101.168 537.5,98.5C 538.546,96.46 540.213,95.1267 542.5,94.5C 547.659,95.5688 551.992,97.4021 555.5,100C 545.781,118.034 530.781,124.701 510.5,120C 499.066,116.233 491.233,108.733 487,97.5C 481.569,64.1329 495.402,47.7996 528.5,48.5 Z"/></g>
<g><path style="opacity:0.006" fill="#c6c6c6" d="M 47.5,51.5 C 48.4916,51.3284 49.1583,51.6618 49.5,52.5C 49.5,53.1667 49.8333,53.5 50.5,53.5C 50.5,53.8333 50.5,54.1667 50.5,54.5C 49.5,54.5 48.5,54.5 47.5,54.5C 46.0484,53.6981 44.3817,53.1981 42.5,53C 43.9047,51.7308 45.5714,51.2308 47.5,51.5 Z"/></g>
<g><path style="opacity:0.016" fill="#dbafa3" d="M 80.5,52.5 C 79.8333,52.5 79.5,52.1667 79.5,51.5C 80.6009,50.4017 81.9343,50.235 83.5,51C 82.2625,51.2321 81.2625,51.7321 80.5,52.5 Z"/></g>
<g><path style="opacity:0.008" fill="#ffdde7" d="M 90.5,51.5 C 91.3065,52.7281 92.3065,53.7281 93.5,54.5C 92.5084,54.3284 91.8417,54.6618 91.5,55.5C 90.8333,55.5 90.5,55.1667 90.5,54.5C 89.791,53.596 88.791,53.2627 87.5,53.5C 87.9731,52.0937 88.9731,51.427 90.5,51.5 Z"/></g>
<g><path style="opacity:0.004" fill="#fefffe" d="M 41.5,54.5 C 40.8333,53.1667 40.8333,53.1667 41.5,54.5 Z"/></g>
<g><path style="opacity:0.004" fill="#fefffe" d="M 94.5,53.5 C 95.7095,53.9321 96.7095,54.5987 97.5,55.5C 96.8333,55.5 96.5,55.8333 96.5,56.5C 95.391,56.4431 94.391,56.1098 93.5,55.5C 93.5,55.1667 93.5,54.8333 93.5,54.5C 94.1667,54.5 94.5,54.1667 94.5,53.5 Z"/></g>
<g><path style="opacity:0.004" fill="#fefffe" d="M 37.5,54.5 C 38.8333,55.1667 38.8333,55.1667 37.5,54.5 Z"/></g>
<g><path style="opacity:0.992" fill="#131313" d="M 68.5,30.5 C 66.795,31.5353 65.1284,31.5353 63.5,30.5C 62.6919,30.8076 62.0253,31.3076 61.5,32C 62.8333,32.6667 62.8333,33.3333 61.5,34C 64.1667,34.6667 64.1667,35.3333 61.5,36C 62.756,36.4169 63.4226,37.2502 63.5,38.5C 55.0927,35.398 46.426,34.2314 37.5,35C 43.2207,38.8399 49.2207,42.0065 55.5,44.5C 53.8967,44.3118 52.5634,44.8118 51.5,46C 54.0468,47.316 54.7135,49.1493 53.5,51.5C 54.9459,53.6179 55.6126,55.9512 55.5,58.5C 56.8734,58.3433 58.2068,58.51 59.5,59C 59.1119,60.5252 59.1119,62.1918 59.5,64C 58.9056,64.4643 58.2389,64.631 57.5,64.5C 54.8333,64.5 52.1667,64.5 49.5,64.5C 48.8333,64.8333 48.1667,65.1667 47.5,65.5C 46.8333,65.5 46.5,65.8333 46.5,66.5C 44.5759,66.7107 44.2426,67.3774 45.5,68.5C 50.9411,73.6079 56.9411,77.9413 63.5,81.5C 62.9569,81.56 62.6236,81.8933 62.5,82.5C 65.1928,84.1322 66.1928,86.2989 65.5,89C 66.3081,89.3076 66.9747,89.8076 67.5,90.5C 66.6063,90.5173 65.6063,90.8506 64.5,91.5C 56.7695,89.1357 49.7695,85.469 43.5,80.5C 43.5,79.8333 43.1667,79.5 42.5,79.5C 41.8333,79.1667 41.1667,78.8333 40.5,78.5C 40.5,77.8333 40.1667,77.5 39.5,77.5C 39.5,76.8333 39.1667,76.5 38.5,76.5C 38.5,75.8333 38.1667,75.5 37.5,75.5C 37.5386,74.2438 37.0386,73.2438 36,72.5C 34.3421,75.9243 34.6754,79.2577 37,82.5C 45.369,93.1102 55.869,100.944 68.5,106C 75.1603,108.827 81.827,111.327 88.5,113.5C 89.2899,114.794 90.2899,115.961 91.5,117C 89.0087,117.626 89.0087,118.459 91.5,119.5C 90.9747,120.192 90.3081,120.692 89.5,121C 90.9423,121.377 91.9423,122.21 92.5,123.5C 88.3484,123.004 84.3484,122.004 80.5,120.5C 81.6016,118.908 80.935,118.075 78.5,118C 72.4246,116.69 67.5913,118.523 64,123.5C 62.2382,123.056 62.4049,122.556 64.5,122C 63.8333,121.667 63.1667,121.333 62.5,121C 63.6872,119.981 64.6872,118.814 65.5,117.5C 65.0431,116.702 64.3764,116.369 63.5,116.5C 62.9907,115.659 63.6573,115.159 65.5,115C 46.5855,108.853 33.2521,97.3533 25.5,80.5C 26.9669,77.7335 27.8003,74.7335 28,71.5C 31.6301,66.7458 34.7968,61.7458 37.5,56.5C 39.153,56.3404 40.4863,55.6737 41.5,54.5C 43.5,54.5 45.5,54.5 47.5,54.5C 48.5,54.5 49.5,54.5 50.5,54.5C 54.5,54.1667 54.5,53.8333 50.5,53.5C 49.8333,53.5 49.5,53.1667 49.5,52.5C 49.1583,51.6618 48.4916,51.3284 47.5,51.5C 39.9349,48.3801 32.9349,44.2134 26.5,39C 27.0148,29.8438 32.1815,25.3438 42,25.5C 51.1571,26.2066 59.9905,27.8733 68.5,30.5 Z"/></g>
<g><path style="opacity:0.004" fill="#fefffe" d="M 37.5,55.5 C 37.5,55.8333 37.5,56.1667 37.5,56.5C 36.8299,56.0187 36.8299,55.6853 37.5,55.5 Z"/></g>
<g><path style="opacity:0.005" fill="#fefffe" d="M 224.5,60.5 C 224.5,61.5 224.5,62.5 224.5,63.5C 223.275,62.8478 222.608,61.6811 222.5,60C 222.667,58.8333 222.833,57.6667 223,56.5C 223.21,58.0581 223.71,59.3915 224.5,60.5 Z"/></g>
<g><path style="opacity:0.005" fill="#fefffe" d="M 238.5,63.5 C 238.833,63.5 239.167,63.5 239.5,63.5C 240.167,63.5 240.5,63.8333 240.5,64.5C 240.5,64.8333 240.5,65.1667 240.5,65.5C 238.797,66.6602 238.131,65.9935 238.5,63.5 Z"/></g>
<g><path style="opacity:0.005" fill="#fefffe" d="M 49.5,64.5 C 49.5123,67.142 48.179,68.4754 45.5,68.5C 45.8333,67.8333 46.1667,67.1667 46.5,66.5C 47.1667,66.5 47.5,66.1667 47.5,65.5C 48.1667,65.1667 48.8333,64.8333 49.5,64.5 Z"/></g>
<g><path style="opacity:0.006" fill="#ffe2ff" d="M 78.5,68.5 C 78.5,68.8333 78.5,69.1667 78.5,69.5C 77.8333,69.5 77.5,69.8333 77.5,70.5C 74.4909,67.8501 74.8242,67.1834 78.5,68.5 Z"/></g>
<g><path style="opacity:0.993" fill="#121212" d="M 130.5,65.5 C 143.602,68.8603 156.602,72.6936 169.5,77C 175.881,79.6063 181.714,83.1063 187,87.5C 187.896,90.025 187.396,92.1917 185.5,94C 182.833,94.6667 180.167,94.6667 177.5,94C 162.173,89.4199 147.34,83.5865 133,76.5C 132.5,76.6667 132,76.8333 131.5,77C 132.066,77.9947 132.733,78.828 133.5,79.5C 137.731,88.1565 139.564,97.1565 139,106.5C 144.47,113.898 143.304,120.064 135.5,125C 129.138,127.762 122.471,129.095 115.5,129C 99.7865,141.738 82.7865,143.738 64.5,135C 62.2324,133.442 61.0657,131.276 61,128.5C 60.6667,129.167 60.3333,129.833 60,130.5C 60.5758,127.657 60.4091,124.823 59.5,122C 59.9444,120.238 60.4444,120.405 61,122.5C 61.6552,120.372 62.4886,118.372 63.5,116.5C 64.3764,116.369 65.0431,116.702 65.5,117.5C 64.6872,118.814 63.6872,119.981 62.5,121C 63.1667,121.333 63.8333,121.667 64.5,122C 62.4049,122.556 62.2382,123.056 64,123.5C 67.5913,118.523 72.4246,116.69 78.5,118C 80.935,118.075 81.6016,118.908 80.5,120.5C 76.1481,118.899 71.9815,119.233 68,121.5C 65.4168,125.986 66.5835,129.152 71.5,131C 82.6845,134.554 93.6845,134.054 104.5,129.5C 105.167,129.5 105.5,129.167 105.5,128.5C 106.833,128.167 106.833,127.833 105.5,127.5C 104.791,126.596 103.791,126.263 102.5,126.5C 102.158,125.662 101.492,125.328 100.5,125.5C 100.167,125.5 99.8333,125.5 99.5,125.5C 98.4324,124.566 97.099,124.232 95.5,124.5C 94.791,123.596 93.791,123.263 92.5,123.5C 91.9423,122.21 90.9423,121.377 89.5,121C 90.3081,120.692 90.9747,120.192 91.5,119.5C 89.0087,118.459 89.0087,117.626 91.5,117C 90.2899,115.961 89.2899,114.794 88.5,113.5C 92.8333,114.167 97.1667,114.833 101.5,115.5C 101.833,115.5 102.167,115.5 102.5,115.5C 107.137,115.646 107.47,114.979 103.5,113.5C 102.205,112.512 100.872,111.512 99.5,110.5C 98.8333,110.5 98.5,110.167 98.5,109.5C 99.531,108.751 100.698,108.085 102,107.5C 102.667,108.833 103.333,108.833 104,107.5C 104.333,108.167 104.667,108.833 105,109.5C 106.615,108.614 108.115,107.614 109.5,106.5C 111.117,107.038 112.784,107.371 114.5,107.5C 115.514,108.674 116.847,109.34 118.5,109.5C 118.833,109.5 119.167,109.5 119.5,109.5C 122.167,109.167 122.167,108.833 119.5,108.5C 118.063,105.964 116.397,103.631 114.5,101.5C 111.5,101.5 108.5,101.5 105.5,101.5C 107.3,99.9496 109.467,98.9496 112,98.5C 113.398,99.0509 114.732,99.3842 116,99.5C 117.294,98.1456 117.46,96.8123 116.5,95.5C 121.599,95.0682 124.266,92.4015 124.5,87.5C 123.5,87.5 122.5,87.5 121.5,87.5C 121.167,87.5 120.833,87.5 120.5,87.5C 119.5,85.8333 118.167,84.5 116.5,83.5C 116.5,82.8333 116.167,82.5 115.5,82.5C 113.858,81.197 112.191,79.8637 110.5,78.5C 111.484,75.619 112.151,72.9523 112.5,70.5C 113.451,69.6744 114.451,69.5078 115.5,70C 114.742,71.3639 115.242,72.5305 117,73.5C 119.237,71.7193 121.237,69.7193 123,67.5C 124.667,67.8333 126.333,68.1667 128,68.5C 129.417,67.9221 130.25,66.9221 130.5,65.5 Z M 114.5,107.5 C 116.38,107.229 117.713,107.896 118.5,109.5C 116.847,109.34 115.514,108.674 114.5,107.5 Z M 103.5,113.5 C 107.47,114.979 107.137,115.646 102.5,115.5C 102.328,114.508 102.662,113.842 103.5,113.5 Z M 134.5,114.5 C 135.623,113.243 136.289,113.576 136.5,115.5C 135.833,115.167 135.167,114.833 134.5,114.5 Z M 132.5,116.5 C 132.5,117.167 132.833,117.5 133.5,117.5C 132.713,119.104 131.38,119.771 129.5,119.5C 130.167,118.167 131.167,117.167 132.5,116.5 Z M 80.5,120.5 C 84.3484,122.004 88.3484,123.004 92.5,123.5C 93.791,123.263 94.791,123.596 95.5,124.5C 94.448,124.351 93.448,124.517 92.5,125C 96.6979,126.278 100.698,127.778 104.5,129.5C 93.6845,134.054 82.6845,134.554 71.5,131C 66.5835,129.152 65.4168,125.986 68,121.5C 71.9815,119.233 76.1481,118.899 80.5,120.5 Z"/></g>
<g><path style="opacity:0.004" fill="#fefffe" d="M 344.5,68.5 C 345.601,67.4017 346.934,67.235 348.5,68C 347.207,68.49 345.873,68.6567 344.5,68.5 Z"/></g>
<g><path style="opacity:0.004" fill="#fefffe" d="M 302.5,69.5 C 301.833,68.1667 301.833,68.1667 302.5,69.5 Z"/></g>
<g><path style="opacity:0.997" fill="#121212" d="M 699.5,99.5 C 699.5,99.8333 699.5,100.167 699.5,100.5C 702.78,108.245 708.446,110.745 716.5,108C 718.74,105.913 721.073,104.079 723.5,102.5C 727.159,103.276 730.825,103.943 734.5,104.5C 733.63,111.389 729.963,116.222 723.5,119C 712.116,123.195 701.449,121.862 691.5,115C 684.951,106.958 682.784,97.7915 685,87.5C 687.296,76.8696 693.796,70.7029 704.5,69C 726.979,66.6525 737.313,76.4859 735.5,98.5C 723.322,98.1716 711.322,98.5049 699.5,99.5 Z M 707.5,79.5 C 714.332,78.4043 718.665,81.071 720.5,87.5C 713.492,87.6663 706.492,87.4996 699.5,87C 701.432,83.5627 704.099,81.0627 707.5,79.5 Z"/></g>
<g><path style="opacity:0.998" fill="#101010" d="M 302.5,81.5 C 301.737,80.7321 300.737,80.2321 299.5,80C 301.891,78.6914 301.891,77.6914 299.5,77C 300.956,76.5774 301.456,75.7441 301,74.5C 300.086,75.6537 299.253,75.487 298.5,74C 301.391,72.7258 304.058,71.2258 306.5,69.5C 311.828,68.1813 317.161,68.6813 322.5,71C 325.106,72.9384 326.939,75.4384 328,78.5C 329.447,92.4271 329.947,106.427 329.5,120.5C 324.5,120.5 319.5,120.5 314.5,120.5C 314.667,108.829 314.5,97.1619 314,85.5C 311.126,81.1365 307.293,79.8031 302.5,81.5 Z"/></g>
<g><path style="opacity:0.999" fill="#101010" d="M 395.5,68.5 C 402.703,67.6268 409.203,69.2935 415,73.5C 416,75.1667 417,76.8333 418,78.5C 419.612,92.0972 419.945,105.764 419,119.5C 402.496,123.828 397.663,118.162 404.5,102.5C 404.333,97.5 404.167,92.5 404,87.5C 400.937,80.5912 396.104,79.0912 389.5,83C 387.513,84.3189 386.346,86.1523 386,88.5C 385.5,99.1615 385.333,109.828 385.5,120.5C 379.979,120.946 374.645,120.446 369.5,119C 370.492,102.577 370.825,86.0774 370.5,69.5C 375.5,69.5 380.5,69.5 385.5,69.5C 385.343,70.8734 385.51,72.2068 386,73.5C 388.907,71.1317 392.074,69.465 395.5,68.5 Z"/></g>
<g><path style="opacity:0.998" fill="#121212" d="M 582.5,68.5 C 608.355,67.8507 618.855,80.184 614,105.5C 608.478,116.437 599.478,121.77 587,121.5C 565.675,118.899 557.008,106.899 561,85.5C 565.131,75.8571 572.297,70.1904 582.5,68.5 Z M 585.5,80.5 C 599.514,82.6701 603.681,90.3367 598,103.5C 591.598,110.957 584.931,111.291 578,104.5C 576.335,101.487 575.168,98.3205 574.5,95C 575.186,87.7515 578.853,82.9182 585.5,80.5 Z"/></g>
<g><path style="opacity:0.006" fill="#ffe5ec" d="M 77.5,70.5 C 77.8333,70.5 78.1667,70.5 78.5,70.5C 78.3284,71.4916 78.6618,72.1583 79.5,72.5C 80.1667,72.5 80.5,72.8333 80.5,73.5C 80.3284,74.4916 80.6618,75.1583 81.5,75.5C 82.1667,75.5 82.5,75.8333 82.5,76.5C 81.8333,76.5 81.5,76.8333 81.5,77.5C 78.8881,75.9478 77.5548,73.6145 77.5,70.5 Z"/></g>
<g><path style="opacity:1" fill="#1f1f1f" d="M 342.5,69.5 C 347.648,68.9264 352.482,69.593 357,71.5C 357.824,87.7408 357.658,103.907 356.5,120C 351.833,120.667 347.167,120.667 342.5,120C 340.153,118.809 339.32,116.976 340,114.5C 340.333,115.5 340.667,116.5 341,117.5C 341.231,101.21 341.731,85.2103 342.5,69.5 Z"/></g>
<g><path style="opacity:0.004" fill="#fefffe" d="M 93.5,71.5 C 96.2583,72.9665 95.925,73.6332 92.5,73.5C 92.3284,72.5084 92.6618,71.8417 93.5,71.5 Z"/></g>
<g><path style="opacity:0.006" fill="#ea6ce6" d="M 63.5,71.5 C 64.8698,73.2504 65.8698,75.2504 66.5,77.5C 66.1667,77.5 65.8333,77.5 65.5,77.5C 64.8333,77.1667 64.1667,76.8333 63.5,76.5C 62.2801,74.7163 62.2801,73.0496 63.5,71.5 Z"/></g>
<g><path style="opacity:0.005" fill="#d9c7d7" d="M 37.5,75.5 C 38.1667,75.5 38.5,75.8333 38.5,76.5C 39.1667,76.5 39.5,76.8333 39.5,77.5C 40.1667,77.5 40.5,77.8333 40.5,78.5C 41.1667,78.8333 41.8333,79.1667 42.5,79.5C 43.1667,79.5 43.5,79.8333 43.5,80.5C 43.631,81.2389 43.4643,81.9056 43,82.5C 40.6969,80.607 38.5302,78.607 36.5,76.5C 36.6236,75.8933 36.9569,75.56 37.5,75.5 Z"/></g>
<g><path style="opacity:0.005" fill="#f8b7ba" d="M 63.5,76.5 C 64.1667,76.8333 64.8333,77.1667 65.5,77.5C 65.3284,78.4916 65.6618,79.1583 66.5,79.5C 66.8333,80.1667 67.1667,80.8333 67.5,81.5C 66.8333,81.5 66.5,81.8333 66.5,82.5C 65.5084,82.6716 64.8417,82.3382 64.5,81.5C 64.3713,79.7839 64.038,78.1172 63.5,76.5 Z"/></g>
<g><path style="opacity:0.005" fill="#eaeaea" d="M 81.5,77.5 C 81.8333,77.5 82.1667,77.5 82.5,77.5C 82.5,78.1667 82.8333,78.5 83.5,78.5C 83.5,79.1667 83.8333,79.5 84.5,79.5C 83.0536,80.6129 81.3869,80.7796 79.5,80C 80.756,79.5831 81.4226,78.7498 81.5,77.5 Z"/></g>
<g><path style="opacity:0.995" fill="#141313" d="M 96.5,78.5 C 103.443,82.9788 110.443,87.4788 117.5,92C 118.749,92.7401 119.749,92.5735 120.5,91.5C 120.833,91.5 121.167,91.5 121.5,91.5C 122.338,91.1583 122.672,90.4916 122.5,89.5C 122.5,88.8333 122.167,88.5 121.5,88.5C 121.5,88.1667 121.5,87.8333 121.5,87.5C 122.5,87.5 123.5,87.5 124.5,87.5C 124.266,92.4015 121.599,95.0682 116.5,95.5C 117.46,96.8123 117.294,98.1456 116,99.5C 114.732,99.3842 113.398,99.0509 112,98.5C 109.467,98.9496 107.3,99.9496 105.5,101.5C 101.714,101.638 101.714,102.305 105.5,103.5C 105.5,104.167 105.833,104.5 106.5,104.5C 106.833,104.5 107.167,104.5 107.5,104.5C 107.842,105.338 108.508,105.672 109.5,105.5C 109.5,105.833 109.5,106.167 109.5,106.5C 108.115,107.614 106.615,108.614 105,109.5C 104.667,108.833 104.333,108.167 104,107.5C 103.333,108.833 102.667,108.833 102,107.5C 100.698,108.085 99.531,108.751 98.5,109.5C 98.1667,109.5 97.8333,109.5 97.5,109.5C 96.3117,108.636 95.1451,107.636 94,106.5C 93.5304,107.577 93.6971,108.577 94.5,109.5C 92.0804,105.226 88.4137,101.393 83.5,98C 80.1484,97.1621 76.8151,96.3288 73.5,95.5C 73.9175,94.7784 74.5842,94.2784 75.5,94C 74.3595,93.2588 74.3595,92.4255 75.5,91.5C 74.7366,90.2807 73.7366,89.2807 72.5,88.5C 74.4121,88.5123 76.4121,88.179 78.5,87.5C 79.014,86.5675 78.3474,86.2342 76.5,86.5C 77.1175,84.7708 78.1175,83.2708 79.5,82C 82.2356,81.5783 84.9023,81.5783 87.5,82C 86.6266,80.955 85.6266,80.1217 84.5,79.5C 83.8333,79.5 83.5,79.1667 83.5,78.5C 82.8333,78.5 82.5,78.1667 82.5,77.5C 82.5,77.1667 82.5,76.8333 82.5,76.5C 83.7564,76.0962 84.9231,75.4295 86,74.5C 86.3491,75.4725 87.1824,76.3058 88.5,77C 91.334,77.0454 93.834,77.8787 96,79.5C 96.3988,79.2716 96.5654,78.9382 96.5,78.5 Z"/></g>
<g><path style="opacity:0.008" fill="#e4e4e4" d="M 133.5,79.5 C 134.721,78.5354 136.054,78.702 137.5,80C 136.072,80.5791 134.738,80.4124 133.5,79.5 Z"/></g>
<g><path style="opacity:0.004" fill="#000000" d="M 138.5,80.5 C 139.833,81.1667 139.833,81.1667 138.5,80.5 Z"/></g>
<g><path style="opacity:0.994" fill="#121212" d="M 658.5,73.5 C 658.062,73.4346 657.728,73.6012 657.5,74C 658.357,74.6891 659.023,75.5224 659.5,76.5C 658.072,79.3863 657.072,82.053 656.5,84.5C 645.113,78.9177 638.113,82.4177 635.5,95C 636.609,105.381 642.276,109.714 652.5,108C 654.405,106.579 656.405,105.412 658.5,104.5C 659.248,107.916 659.248,111.249 658.5,114.5C 655.381,117.393 651.714,119.226 647.5,120C 648.094,120.464 648.761,120.631 649.5,120.5C 629.697,121.529 620.197,111.862 621,91.5C 623.434,75.0677 632.934,67.5677 649.5,69C 653.11,69.4717 656.11,70.9717 658.5,73.5 Z"/></g>
<g><path style="opacity:0.007" fill="#f4e5e4" d="M 115.5,82.5 C 116.167,82.5 116.5,82.8333 116.5,83.5C 118.167,84.5 119.5,85.8333 120.5,87.5C 120.5,88.1667 120.833,88.5 121.5,88.5C 122.167,88.5 122.5,88.8333 122.5,89.5C 121.662,89.8417 121.328,90.5084 121.5,91.5C 121.167,91.5 120.833,91.5 120.5,91.5C 118.873,88.3452 116.539,85.5119 113.5,83C 114.094,82.5357 114.761,82.369 115.5,82.5 Z"/></g>
<g><path style="opacity:0.004" fill="#adadad" d="M 447.5,83.5 C 448.551,84.2223 449.218,85.2223 449.5,86.5C 449.5,87.1667 449.167,87.5 448.5,87.5C 447.833,87.5 447.5,87.8333 447.5,88.5C 446.167,86.8333 446.167,85.1667 447.5,83.5 Z"/></g>
<g><path style="opacity:0.004" fill="#000000" d="M 537.5,98.5 C 536.833,97.1667 536.833,97.1667 537.5,98.5 Z"/></g>
<g><path style="opacity:0.006" fill="#fefffe" d="M 699.5,100.5 C 699.5,100.167 699.5,99.8333 699.5,99.5C 702.336,99.2022 702.836,99.8689 701,101.5C 700.617,100.944 700.117,100.611 699.5,100.5 Z"/></g>
<g><path style="opacity:0.006" fill="#f3f3f3" d="M 114.5,101.5 C 116.397,103.631 118.063,105.964 119.5,108.5C 119.5,108.833 119.5,109.167 119.5,109.5C 119.167,109.5 118.833,109.5 118.5,109.5C 117.713,107.896 116.38,107.229 114.5,107.5C 113.994,104.266 112.328,103.599 109.5,105.5C 109.158,104.662 108.492,104.328 107.5,104.5C 107.167,104.5 106.833,104.5 106.5,104.5C 105.833,104.5 105.5,104.167 105.5,103.5C 108.5,102.833 111.5,102.167 114.5,101.5 Z"/></g>
<g><path style="opacity:0.005" fill="#c0c0c0" d="M 447.5,99.5 C 448.167,99.5 448.5,99.8333 448.5,100.5C 449.167,100.5 449.5,100.833 449.5,101.5C 450.167,101.5 450.5,101.833 450.5,102.5C 450.5,102.833 450.5,103.167 450.5,103.5C 450.5,103.833 450.5,104.167 450.5,104.5C 449.295,106.138 447.962,106.471 446.5,105.5C 446.205,103.265 446.539,101.265 447.5,99.5 Z"/></g>
<g><path style="opacity:0.004" fill="#fefffe" d="M 450.5,104.5 C 450.833,104.5 451.167,104.5 451.5,104.5C 451.315,105.17 450.981,105.17 450.5,104.5 Z"/></g>
<g><path style="opacity:0.007" fill="#ffcab8" d="M 97.5,109.5 C 97.5,110.167 97.5,110.833 97.5,111.5C 96.2905,111.068 95.2905,110.401 94.5,109.5C 93.6971,108.577 93.5304,107.577 94,106.5C 95.1451,107.636 96.3117,108.636 97.5,109.5 Z"/></g>
<g><path style="opacity:0.005" fill="#ffe2eb" d="M 99.5,110.5 C 100.872,111.512 102.205,112.512 103.5,113.5C 102.662,113.842 102.328,114.508 102.5,115.5C 102.167,115.5 101.833,115.5 101.5,115.5C 100.375,114 99.0414,112.667 97.5,111.5C 98.4916,111.672 99.1583,111.338 99.5,110.5 Z"/></g>
<g><path style="opacity:0.004" fill="#fefffe" d="M 134.5,114.5 C 135.167,114.833 135.833,115.167 136.5,115.5C 135.71,116.401 134.71,117.068 133.5,117.5C 132.833,117.5 132.5,117.167 132.5,116.5C 133.167,115.833 133.833,115.167 134.5,114.5 Z"/></g>
<g><path style="opacity:0.004" fill="#fefffe" d="M 317.5,121.5 C 318.833,122.167 318.833,122.167 317.5,121.5 Z"/></g>
<g><path style="opacity:0.004" fill="#e89a9c" d="M 95.5,124.5 C 96.5676,125.434 97.901,125.768 99.5,125.5C 99.8333,125.5 100.167,125.5 100.5,125.5C 100.842,126.338 101.508,126.672 102.5,126.5C 103.209,127.404 104.209,127.737 105.5,127.5C 105.5,127.833 105.5,128.167 105.5,128.5C 105.5,129.167 105.167,129.5 104.5,129.5C 100.698,127.778 96.6979,126.278 92.5,125C 93.448,124.517 94.448,124.351 95.5,124.5 Z"/></g>
</svg>
